# xmcd
#
# Track frame offsets:
#	150
#	16420
#	30988
#	42853
#	61494
#	78258
#	90666
#	105356
#	118944
#	142574
#
# Disc length: 2111 seconds
# Revision: 0
# Processed by: cddbd v1.5.2PL0 Copyright (c) Steve Scherf et al.
# Submitted via: dBpowerAMP V12.0
#
DISCID=6d083d0a
DTITLE=3hattrio - Solitaire
DYEAR=2016
DGENRE=Country
TTITLE0=Texas Time Traveler
TTITLE1=Rose
TTITLE2=What Do You Do
TTITLE3=Get Up Stand Up
TTITLE4=Mojave
TTITLE5=Should I
TTITLE6=Range
TTITLE7=Blood River
TTITLE8=Eddy Mesa
TTITLE9=Bury Me Not
EXTD=
EXTT0=
EXTT1=
EXTT2=
EXTT3=
EXTT4=
EXTT5=
EXTT6=
EXTT7=
EXTT8=
EXTT9=
PLAYORDER=
